<svg width="16" height="15" viewBox="0 0 16 15" fill="none" xmlns="http://www.w3.org/2000/svg">
<path d="M7.49512 0.5C7.54205 0.5 7.58816 0.513178 7.62793 0.538086C7.66756 0.562926 7.69925 0.598585 7.71973 0.640625L7.72168 0.644531L9.63477 4.52148L9.75098 4.75781L10.0107 4.79492L14.2783 5.41797L14.293 5.41992L14.3076 5.4209C14.3556 5.425 14.4014 5.44317 14.4395 5.47266C14.4727 5.49855 14.4971 5.53377 14.5137 5.57227C14.5213 5.61259 14.5211 5.65402 14.5088 5.69336C14.4946 5.73841 14.4677 5.77904 14.4316 5.80957L14.4189 5.82031L14.4072 5.83105L11.3096 8.83105L11.1191 9.01562L11.165 9.27734L11.915 13.5371L11.917 13.5439C11.9259 13.5907 11.921 13.6393 11.9033 13.6836C11.8856 13.7279 11.8552 13.7662 11.8164 13.7939L11.8145 13.7959C11.7716 13.8269 11.7199 13.843 11.667 13.8428H11.6641C11.6298 13.8429 11.5952 13.8342 11.5654 13.8174L11.5596 13.8135L11.5527 13.8105L7.72754 11.8008L7.49609 11.6787L7.26367 11.7998L3.42383 13.8018L3.4209 13.8037C3.37985 13.8255 3.33346 13.8351 3.28711 13.832C3.24081 13.8289 3.19596 13.8131 3.1582 13.7861H3.15918C3.12041 13.7584 3.08998 13.7201 3.07227 13.6758C3.05475 13.6318 3.04983 13.5837 3.05859 13.5371L3.06055 13.5293L3.81055 9.26953L3.85645 9.00879L3.66602 8.82422L0.572266 5.82812C0.540735 5.79627 0.518712 5.75638 0.507812 5.71289C0.497126 5.67014 0.497584 5.6253 0.509766 5.58301C0.524555 5.54076 0.55067 5.50348 0.584961 5.47461C0.620755 5.44456 0.664668 5.42455 0.710938 5.41797H0.712891L4.98047 4.78809L5.24023 4.74902L5.35645 4.51465L7.26855 0.644531L7.27051 0.640625C7.29098 0.598571 7.32268 0.562939 7.3623 0.538086C7.40207 0.513163 7.44819 0.50002 7.49512 0.5Z" fill="#FFB01D" stroke="#FFB01D"/>
</svg>
